<?xml version="1.0" encoding="UTF-8" standalone="no"?>
<svg width="297px" height="60px" viewBox="0 0 297 60" version="1.1" xmlns="http://www.w3.org/2000/svg" xmlns:xlink="http://www.w3.org/1999/xlink">
    <!-- Generator: Sketch 3.8.3 (29802) - http://www.bohemiancoding.com/sketch -->
    <title>Page 1</title>
    <desc>Created with Sketch.</desc>
    <defs>
        <polygon id="path-1" points="0 59.197 296.31 59.197 296.31 0 0 0"></polygon>
    </defs>
    <g id="1440" stroke="none" stroke-width="1" fill="none" fill-rule="evenodd">
        <g id="Artboard-70" transform="translate(-1093.000000, -295.000000)">
            <g id="Page-1" transform="translate(1093.000000, 295.000000)">
                <path d="M46.8098,56.6129 L35.6418,39.8609 L40.6338,36.5329 L50.1378,50.7889 L71.6418,18.5329 L76.6338,21.8609 L53.4658,56.6129 C51.8828,58.9879 48.3928,58.9879 46.8098,56.6129 L46.8098,56.6129 Z" id="Fill-1" fill="#0C8CF7"></path>
                <polygon id="Fill-3" fill="#25272D" points="155.8872 45.3492 147.7962 26.7162 146.1692 55.2812 136.1122 55.2812 138.7092 7.2612 149.3712 7.2612 159.9842 31.8542 170.5972 7.2612 181.2522 7.2612 183.8502 55.2812 173.8002 55.2812 172.1732 26.7162 164.0822 45.3492"></polygon>
                <path d="M205.886,46.7185 C207.941,46.7185 209.551,46.0335 210.715,44.6635 C211.88,43.2935 212.462,40.8735 212.462,37.4015 C212.462,33.9325 211.88,31.5005 210.715,30.1075 C209.551,28.7145 207.941,28.0175 205.886,28.0175 C203.876,28.0175 202.266,28.7365 201.056,30.1745 C199.845,31.6145 199.241,34.0235 199.241,37.4015 C199.241,40.8735 199.834,43.2935 201.022,44.6635 C202.209,46.0335 203.831,46.7185 205.886,46.7185 M205.886,19.1125 C208.26,19.1125 210.476,19.4445 212.531,20.1055 C214.586,20.7675 216.355,21.8295 217.84,23.2905 C219.323,24.7535 220.487,26.6475 221.333,28.9765 C222.178,31.3055 222.601,34.1145 222.601,37.4015 C222.601,40.6905 222.178,43.4995 221.333,45.8275 C220.487,48.1575 219.323,50.0525 217.84,51.5145 C216.355,52.9765 214.586,54.0375 212.531,54.6995 C210.476,55.3605 208.26,55.6925 205.886,55.6925 C203.464,55.6925 201.239,55.3605 199.207,54.6995 C197.174,54.0375 195.416,52.9765 193.932,51.5145 C192.447,50.0525 191.283,48.1575 190.438,45.8275 C189.592,43.4995 189.171,40.6905 189.171,37.4015 C189.171,34.1605 189.592,31.3855 190.438,29.0795 C191.283,26.7735 192.447,24.8785 193.932,23.3935 C195.416,21.9105 197.174,20.8255 199.207,20.1395 C201.239,19.4545 203.464,19.1125 205.886,19.1125" id="Fill-5" fill="#25272D"></path>
                <mask id="mask-2" fill="white">
                    <use xlink:href="#path-1"></use>
                </mask>
                <g id="Clip-8"></g>
                <polygon id="Fill-7" fill="#25272D" mask="url(#mask-2)" points="228.981 55.281 239.325 55.281 239.325 6.191 228.981 6.191"></polygon>
                <polygon id="Fill-9" fill="#25272D" mask="url(#mask-2)" points="239.2555 36.7864 251.3035 19.5224 263.0175 19.5224 250.6275 36.3064 264.3885 55.2814 252.7415 55.2814"></polygon>
                <path d="M285.9658,39.595 C285.5088,39.503 285.0288,39.447 284.5278,39.424 C284.0238,39.401 283.5908,39.389 283.2248,39.389 C281.3068,39.389 279.7548,39.687 278.5678,40.28 C277.3788,40.873 276.7858,41.901 276.7858,43.362 C276.7858,44.276 277.0028,44.996 277.4378,45.52 C277.8698,46.045 278.4068,46.434 279.0468,46.684 C279.6858,46.936 280.3588,47.084 281.0678,47.129 C281.7758,47.175 282.3798,47.198 282.8838,47.198 C283.7958,47.198 284.8238,47.084 285.9658,46.855 L285.9658,39.595 Z M282.4038,32.06 C282.7688,32.06 283.2598,32.071 283.8768,32.093 C284.4928,32.117 285.1878,32.152 285.9658,32.197 C285.9198,30.415 285.4718,29.14 284.0608,28.434 C282.8798,27.844 281.3068,27.587 279.3888,27.587 C278.3388,27.587 277.1288,27.713 275.7588,27.964 C274.3888,28.215 272.9038,28.592 271.3058,29.094 L270.2108,25.327 C270.0728,24.824 269.8778,24.093 269.6278,23.135 C269.3758,22.175 269.2048,21.422 269.1138,20.874 C271.3968,20.097 273.5558,19.538 275.5878,19.195 C277.6198,18.853 279.4578,18.682 281.1018,18.682 C285.9418,18.682 289.6868,19.836 292.3368,22.141 C294.9848,24.448 296.3098,28.497 296.3098,33.566 L296.3098,53.637 C294.5288,54.141 292.4738,54.631 290.1448,55.11 C287.8148,55.59 285.3028,55.83 282.6098,55.83 C280.2338,55.83 278.0758,55.624 276.1348,55.213 C274.1938,54.802 272.5278,54.117 271.1348,53.158 C269.7408,52.199 268.6688,50.944 267.9148,49.39 C267.1618,47.838 266.7848,45.943 266.7848,43.705 C266.7848,41.468 267.2518,39.595 268.1888,38.088 C269.1248,36.58 270.3348,35.381 271.8198,34.491 C273.3038,33.6 274.9708,32.973 276.8208,32.607 C278.6698,32.243 280.5308,32.06 282.4038,32.06 L282.4038,32.06 Z" id="Fill-10" fill="#25272D" mask="url(#mask-2)"></path>
                <path d="M24.5326,53.197 L7.7436,53.197 L38.1376,7.605 L46.5326,20.197 L24.5326,53.197 Z M99.5976,52.978 L65.4666,1.781 C63.8826,-0.594 60.3936,-0.594 58.8096,1.781 L50.1376,14.789 L41.4666,1.781 C39.8826,-0.594 36.3936,-0.594 34.8096,1.781 L0.6786,52.978 C-1.0934,55.636 0.8116,59.197 4.0066,59.197 L25.6026,59.197 C26.9406,59.197 28.1886,58.529 28.9306,57.416 L62.1376,7.605 L92.5326,53.197 L75.7436,53.197 L65.7436,38.197 L62.1376,43.605 L71.3456,57.416 C72.0866,58.529 73.3356,59.197 74.6736,59.197 L96.2696,59.197 C99.4646,59.197 101.3696,55.636 99.5976,52.978 L99.5976,52.978 Z" id="Fill-11" fill="#0C8CF7" mask="url(#mask-2)"></path>
            </g>
        </g>
    </g>
</svg>